<svg id="svg" version="1.1" xmlns="http://www.w3.org/2000/svg" xmlns:xlink="http://www.w3.org/1999/xlink" viewBox="0, 0, 400,457.67790262172286"><g id="svgg"><path id="path0" d="M157.758 89.542 C 149.401 93.446,152.303 105.600,161.593 105.600 C 172.487 105.600,172.962 89.406,162.083 88.899 C 160.076 88.806,158.986 88.968,157.758 89.542 M216.958 89.542 C 212.959 91.410,211.120 95.805,212.592 99.976 C 215.803 109.080,229.177 106.841,229.177 97.200 C 229.177 90.968,222.654 86.880,216.958 89.542 M191.200 214.632 C 188.745 214.907,184.277 215.693,181.800 216.286 C 180.480 216.602,178.770 217.007,178.000 217.186 C 159.739 221.426,138.946 236.135,122.790 256.240 C 120.796 258.722,117.081 263.969,114.613 267.789 C 111.952 271.910,111.088 273.335,108.785 277.400 C 107.599 279.492,101.200 292.287,101.200 292.565 C 101.200 292.683,100.690 293.909,100.066 295.290 C 96.097 304.070,90.536 321.328,88.428 331.400 C 81.685 363.621,80.647 389.537,84.862 420.400 C 86.272 430.731,88.099 439.600,88.816 439.600 C 89.027 439.600,89.200 439.420,89.200 439.200 C 89.200 438.980,89.555 438.800,89.988 438.800 C 90.421 438.800,91.392 438.454,92.145 438.031 C 92.898 437.608,94.346 437.137,95.362 436.985 C 96.378 436.832,97.308 436.548,97.429 436.354 C 97.549 436.159,98.166 436.000,98.800 436.000 C 99.434 436.000,100.064 435.820,100.200 435.600 C 100.336 435.380,101.236 435.200,102.200 435.200 C 103.164 435.200,104.064 435.020,104.200 434.800 C 104.336 434.580,105.326 434.400,106.400 434.400 C 107.474 434.400,108.464 434.220,108.600 434.000 C 108.755 433.750,112.796 433.600,119.400 433.600 C 126.004 433.600,130.045 433.750,130.200 434.000 C 130.336 434.220,131.416 434.400,132.600 434.400 C 133.784 434.400,134.864 434.580,135.000 434.800 C 135.136 435.020,135.946 435.200,136.800 435.200 C 137.654 435.200,138.464 435.380,138.600 435.600 C 138.736 435.820,139.456 436.000,140.200 436.000 C 140.944 436.000,141.649 436.156,141.768 436.347 C 141.886 436.539,142.704 436.810,143.586 436.951 C 144.468 437.092,145.827 437.566,146.607 438.004 C 147.386 438.442,148.272 438.800,148.574 438.800 C 149.358 438.800,152.480 440.470,153.247 441.300 C 153.603 441.685,154.188 442.000,154.547 442.000 C 154.906 442.000,155.200 442.168,155.200 442.373 C 155.200 442.578,155.543 442.855,155.962 442.988 C 156.966 443.306,162.400 448.709,162.400 449.387 C 162.400 449.677,162.685 450.024,163.033 450.157 C 164.119 450.574,172.800 450.434,172.800 450.000 C 172.800 449.737,181.992 449.600,199.576 449.600 C 216.996 449.600,226.439 449.740,226.600 450.000 C 227.188 450.951,237.600 450.428,237.600 449.447 C 237.600 448.761,243.168 443.430,244.800 442.552 C 245.570 442.139,246.470 441.530,246.800 441.200 C 247.572 440.428,250.710 438.800,251.426 438.800 C 251.728 438.800,252.579 438.461,253.316 438.047 C 254.053 437.633,255.407 437.168,256.326 437.013 C 257.244 436.857,258.097 436.566,258.222 436.365 C 258.346 436.164,259.056 436.000,259.800 436.000 C 260.544 436.000,261.264 435.820,261.400 435.600 C 261.536 435.380,262.447 435.200,263.424 435.200 C 264.401 435.200,265.200 435.020,265.200 434.800 C 265.200 434.580,266.179 434.400,267.376 434.400 C 268.573 434.400,269.664 434.220,269.800 434.000 C 269.955 433.750,273.996 433.600,280.600 433.600 C 287.204 433.600,291.245 433.750,291.400 434.000 C 291.536 434.220,292.526 434.400,293.600 434.400 C 294.674 434.400,295.664 434.580,295.800 434.800 C 295.936 435.020,296.836 435.200,297.800 435.200 C 298.764 435.200,299.664 435.380,299.800 435.600 C 299.936 435.820,300.566 436.000,301.200 436.000 C 301.834 436.000,302.451 436.159,302.571 436.354 C 302.692 436.548,303.622 436.832,304.638 436.985 C 305.654 437.137,307.102 437.608,307.855 438.031 C 309.750 439.095,311.138 439.043,311.357 437.900 C 311.923 434.952,312.508 431.994,312.802 430.600 C 312.987 429.720,313.350 427.650,313.607 426.000 C 313.865 424.350,314.231 422.100,314.420 421.000 C 314.845 418.539,315.827 408.845,316.386 401.600 C 317.663 385.044,316.247 359.195,313.175 343.000 C 312.925 341.680,312.582 339.790,312.415 338.800 C 311.904 335.790,310.791 330.844,309.532 326.000 C 308.426 321.743,308.149 320.714,307.217 317.400 C 291.990 263.244,255.798 223.886,213.400 215.377 C 210.332 214.761,194.724 214.237,191.200 214.632 " stroke="none" fill="#ffffff" fill-rule="evenodd"></path><path id="path1" d="M186.700 0.271 C 185.215 0.362,184.000 0.608,184.000 0.818 C 184.000 1.028,183.190 1.200,182.200 1.200 C 181.210 1.200,180.400 1.380,180.400 1.600 C 180.400 1.820,179.680 2.000,178.800 2.000 C 177.920 2.000,177.200 2.157,177.200 2.348 C 177.200 2.540,176.125 2.818,174.812 2.967 C 173.499 3.115,172.318 3.409,172.189 3.618 C 172.059 3.828,171.423 4.000,170.776 4.000 C 170.129 4.000,169.600 4.180,169.600 4.400 C 169.600 4.620,169.150 4.800,168.600 4.800 C 168.050 4.800,167.600 4.980,167.600 5.200 C 167.600 5.420,167.328 5.600,166.995 5.600 C 166.662 5.600,166.077 5.760,165.695 5.956 C 165.313 6.152,164.100 6.735,163.000 7.251 C 161.900 7.767,160.910 8.310,160.799 8.458 C 160.689 8.606,159.924 8.853,159.099 9.008 C 158.275 9.162,157.600 9.415,157.600 9.570 C 157.600 9.724,156.970 10.098,156.200 10.400 C 155.430 10.702,154.800 11.096,154.800 11.275 C 154.800 11.454,154.440 11.600,154.000 11.600 C 153.560 11.600,153.200 11.780,153.200 12.000 C 153.200 12.220,152.964 12.400,152.675 12.400 C 152.387 12.400,151.764 12.760,151.292 13.200 C 150.820 13.640,150.246 14.000,150.017 14.000 C 149.788 14.000,149.600 14.160,149.600 14.357 C 149.600 14.553,149.135 14.830,148.566 14.973 C 147.997 15.116,147.184 15.556,146.759 15.952 C 146.334 16.348,145.495 16.925,144.893 17.233 C 144.292 17.542,143.509 18.111,143.153 18.497 C 142.797 18.884,142.336 19.200,142.129 19.200 C 141.921 19.200,141.402 19.515,140.975 19.900 C 140.548 20.285,139.479 21.132,138.600 21.783 C 137.720 22.434,136.523 23.469,135.940 24.083 C 135.356 24.697,134.726 25.202,134.540 25.205 C 134.353 25.208,132.130 27.203,129.600 29.638 C 127.070 32.074,124.595 34.342,124.100 34.679 C 123.605 35.016,123.200 35.446,123.200 35.633 C 123.200 35.821,122.277 36.925,121.148 38.087 C 120.019 39.249,118.624 40.825,118.048 41.589 C 117.472 42.354,116.415 43.554,115.700 44.256 C 114.985 44.959,114.400 45.739,114.400 45.990 C 114.400 46.242,114.220 46.336,114.000 46.200 C 113.780 46.064,113.600 46.230,113.600 46.569 C 113.600 46.909,113.153 47.684,112.606 48.293 C 110.184 50.991,109.212 52.229,109.206 52.625 C 109.203 52.858,108.885 53.404,108.500 53.838 C 107.151 55.360,105.200 57.956,105.200 58.230 C 105.200 58.382,104.828 58.829,104.374 59.223 C 103.919 59.617,103.586 59.998,103.632 60.070 C 103.834 60.379,103.112 62.000,102.773 62.000 C 102.568 62.000,102.400 62.270,102.400 62.600 C 102.400 62.930,102.250 63.200,102.068 63.200 C 101.885 63.200,101.481 63.695,101.170 64.300 C 100.860 64.905,100.289 65.691,99.903 66.047 C 99.516 66.403,99.200 66.988,99.200 67.347 C 99.200 67.706,99.060 68.000,98.890 68.000 C 98.719 68.000,98.224 68.808,97.790 69.796 C 97.355 70.784,96.865 71.594,96.700 71.596 C 96.535 71.598,96.400 71.960,96.400 72.400 C 96.400 72.840,96.220 73.200,96.000 73.200 C 95.780 73.200,95.600 73.455,95.600 73.767 C 95.600 74.078,95.465 74.393,95.300 74.467 C 95.135 74.540,94.567 75.455,94.037 76.500 C 93.508 77.545,92.912 78.400,92.714 78.400 C 92.515 78.400,92.451 78.560,92.572 78.755 C 92.693 78.950,92.542 79.316,92.237 79.569 C 91.933 79.822,91.567 80.652,91.424 81.414 C 91.281 82.176,90.992 82.800,90.782 82.800 C 90.572 82.800,90.400 83.145,90.400 83.567 C 90.400 83.988,90.256 84.393,90.080 84.467 C 89.904 84.540,89.160 85.860,88.425 87.400 C 87.691 88.940,86.890 90.332,86.645 90.494 C 86.400 90.656,86.356 90.791,86.546 90.794 C 86.736 90.797,86.614 91.224,86.275 91.742 C 85.936 92.259,85.535 93.339,85.385 94.142 C 85.234 94.944,84.951 95.600,84.755 95.600 C 84.560 95.600,84.400 95.960,84.400 96.400 C 84.400 96.840,84.220 97.200,84.000 97.200 C 83.780 97.200,83.600 97.560,83.600 98.000 C 83.600 98.440,83.420 98.800,83.200 98.800 C 82.980 98.800,82.800 99.126,82.800 99.525 C 82.800 99.924,82.440 100.995,82.000 101.906 C 81.560 102.816,81.200 103.829,81.200 104.157 C 81.200 104.485,81.020 104.864,80.800 105.000 C 80.580 105.136,80.400 105.597,80.400 106.024 C 80.400 106.451,80.231 106.800,80.025 106.800 C 79.818 106.800,79.528 107.610,79.379 108.600 C 79.231 109.590,78.950 110.400,78.755 110.400 C 78.560 110.400,78.400 110.749,78.400 111.176 C 78.400 111.603,78.220 112.064,78.000 112.200 C 77.780 112.336,77.600 112.887,77.600 113.424 C 77.600 113.961,77.420 114.400,77.200 114.400 C 76.980 114.400,76.800 114.951,76.800 115.624 C 76.800 116.337,76.633 116.744,76.400 116.600 C 76.169 116.457,76.000 116.836,76.000 117.496 C 76.000 118.125,75.851 118.811,75.670 119.020 C 75.488 119.229,75.110 120.210,74.831 121.200 C 74.551 122.190,74.175 123.289,73.994 123.641 C 73.814 123.994,73.541 125.121,73.387 126.146 C 73.233 127.171,72.948 128.108,72.754 128.229 C 72.559 128.349,72.400 128.977,72.400 129.624 C 72.400 130.271,72.220 130.800,72.000 130.800 C 71.780 130.800,71.600 131.430,71.600 132.200 C 71.600 132.970,71.420 133.600,71.200 133.600 C 70.980 133.600,70.800 134.129,70.800 134.776 C 70.800 135.423,70.620 136.064,70.400 136.200 C 70.180 136.336,70.000 136.966,70.000 137.600 C 70.000 138.234,69.820 138.864,69.600 139.000 C 69.380 139.136,69.200 139.856,69.200 140.600 C 69.200 141.344,69.020 142.064,68.800 142.200 C 68.580 142.336,68.400 143.025,68.400 143.731 C 68.400 144.441,67.953 145.672,67.400 146.486 C 66.850 147.295,66.400 148.107,66.400 148.290 C 66.400 148.474,66.040 148.883,65.600 149.200 C 65.160 149.517,64.800 150.007,64.800 150.288 C 64.800 150.570,64.657 150.800,64.483 150.800 C 64.308 150.800,63.633 151.696,62.983 152.792 C 62.332 153.888,61.665 154.788,61.500 154.792 C 61.335 154.796,61.200 155.070,61.200 155.400 C 61.200 155.730,61.020 156.000,60.800 156.000 C 60.580 156.000,60.400 156.236,60.400 156.525 C 60.400 156.813,60.040 157.436,59.600 157.908 C 59.160 158.380,58.800 158.939,58.800 159.150 C 58.800 159.361,58.665 159.593,58.500 159.667 C 58.121 159.835,56.886 161.859,56.284 163.300 C 56.031 163.905,55.684 164.400,55.512 164.400 C 55.341 164.400,55.200 164.668,55.200 164.995 C 55.200 165.543,54.570 166.478,53.300 167.816 C 53.025 168.106,52.800 168.592,52.800 168.896 C 52.800 169.200,52.479 169.798,52.087 170.225 C 51.306 171.074,50.000 173.662,50.000 174.360 C 50.000 174.602,49.820 174.800,49.600 174.800 C 49.380 174.800,49.200 175.081,49.200 175.424 C 49.200 175.767,49.020 175.936,48.800 175.800 C 48.580 175.664,48.400 175.923,48.400 176.376 C 48.400 176.829,48.220 177.200,48.000 177.200 C 47.780 177.200,47.600 177.560,47.600 178.000 C 47.600 178.440,47.420 178.800,47.200 178.800 C 46.980 178.800,46.800 179.070,46.800 179.400 C 46.800 179.730,46.620 180.000,46.400 180.000 C 46.180 180.000,46.000 180.338,46.000 180.751 C 46.000 181.164,45.732 181.724,45.404 181.996 C 45.077 182.268,44.907 182.650,45.028 182.845 C 45.149 183.040,45.057 183.200,44.824 183.200 C 44.591 183.200,44.400 183.487,44.400 183.838 C 44.400 184.544,43.173 186.923,42.700 187.133 C 42.535 187.207,42.400 187.522,42.400 187.833 C 42.400 188.145,42.220 188.400,42.000 188.400 C 41.780 188.400,41.600 188.653,41.600 188.962 C 41.600 189.647,39.955 192.886,39.400 193.294 C 39.180 193.456,39.132 193.591,39.294 193.594 C 39.456 193.597,39.232 194.185,38.796 194.900 C 38.360 195.615,38.002 196.500,38.001 196.867 C 38.001 197.233,37.864 197.593,37.698 197.667 C 37.532 197.740,36.768 199.060,36.000 200.600 C 35.232 202.140,34.468 203.460,34.302 203.533 C 34.136 203.607,34.000 203.981,34.000 204.366 C 34.000 204.750,33.551 205.950,33.002 207.032 C 32.453 208.114,32.003 209.225,32.002 209.500 C 32.001 209.775,31.820 210.000,31.600 210.000 C 31.380 210.000,31.200 210.253,31.200 210.562 C 31.200 210.871,30.861 211.816,30.447 212.662 C 30.033 213.508,29.271 215.100,28.753 216.200 C 28.235 217.300,27.628 218.332,27.405 218.494 C 27.182 218.656,27.126 218.791,27.280 218.794 C 27.433 218.797,27.306 219.407,26.995 220.149 C 26.685 220.891,26.545 221.611,26.683 221.749 C 26.820 221.887,26.723 222.000,26.467 222.000 C 26.210 222.000,26.000 222.360,26.000 222.800 C 26.000 223.240,25.820 223.600,25.600 223.600 C 25.380 223.600,25.200 223.872,25.200 224.205 C 25.200 224.538,25.043 225.123,24.850 225.505 C 23.286 228.611,22.800 229.779,22.800 230.438 C 22.800 230.857,22.620 231.200,22.400 231.200 C 22.180 231.200,22.000 231.449,22.000 231.754 C 22.000 232.059,21.731 232.824,21.402 233.454 C 21.074 234.084,20.804 235.005,20.802 235.500 C 20.801 235.995,20.620 236.400,20.400 236.400 C 20.180 236.400,20.000 236.850,20.000 237.400 C 20.000 237.950,19.820 238.400,19.600 238.400 C 19.380 238.400,19.200 238.850,19.200 239.400 C 19.200 239.950,19.020 240.400,18.800 240.400 C 18.580 240.400,18.400 240.850,18.400 241.400 C 18.400 241.950,18.241 242.400,18.047 242.400 C 17.852 242.400,17.604 242.805,17.494 243.300 C 17.209 244.590,15.846 248.163,15.549 248.400 C 15.411 248.510,15.164 249.403,15.000 250.385 C 14.835 251.366,14.515 252.536,14.288 252.985 C 13.320 254.896,13.200 255.230,13.200 256.018 C 13.200 256.474,13.020 256.736,12.800 256.600 C 12.567 256.456,12.400 256.863,12.400 257.576 C 12.400 258.249,12.220 258.800,12.000 258.800 C 11.780 258.800,11.600 259.252,11.600 259.805 C 11.600 260.358,11.429 261.123,11.219 261.505 C 10.498 262.819,9.207 267.034,8.950 268.916 C 8.807 269.952,8.536 270.800,8.346 270.800 C 8.156 270.800,8.000 271.340,8.000 272.000 C 8.000 272.660,7.820 273.200,7.600 273.200 C 7.380 273.200,7.200 273.729,7.200 274.376 C 7.200 275.023,7.020 275.664,6.800 275.800 C 6.580 275.936,6.400 276.577,6.400 277.224 C 6.400 277.871,6.220 278.400,6.000 278.400 C 5.780 278.400,5.600 279.019,5.600 279.776 C 5.600 280.533,5.440 281.252,5.244 281.373 C 5.049 281.494,4.795 282.179,4.681 282.896 C 4.568 283.613,4.262 284.920,4.002 285.800 C 3.742 286.680,3.320 288.692,3.065 290.271 C 2.809 291.849,2.465 293.274,2.300 293.437 C 2.135 293.600,2.000 294.513,2.000 295.467 C 2.000 296.420,1.820 297.200,1.600 297.200 C 1.380 297.200,1.200 298.175,1.200 299.367 C 1.200 300.740,1.018 301.594,0.702 301.699 C -0.024 301.941,-0.026 327.256,0.700 327.499 C 0.975 327.591,1.200 327.920,1.200 328.229 C 1.200 328.805,2.003 329.920,3.375 331.249 C 5.384 333.195,11.841 331.805,15.305 328.681 C 17.272 326.908,18.379 326.000,18.575 326.000 C 18.777 326.000,23.600 321.126,23.600 320.922 C 23.600 320.843,24.127 320.198,24.770 319.489 C 27.029 317.001,27.999 315.797,28.000 315.482 C 28.000 315.307,28.405 314.757,28.900 314.259 C 29.395 313.762,30.250 312.691,30.800 311.880 C 31.350 311.069,31.935 310.404,32.100 310.403 C 32.265 310.401,32.400 310.080,32.400 309.688 C 32.400 309.297,32.760 308.717,33.200 308.400 C 33.640 308.083,34.000 307.685,34.000 307.516 C 34.000 307.222,34.845 306.096,35.900 304.984 C 36.175 304.694,36.400 304.355,36.400 304.229 C 36.400 304.104,37.030 303.125,37.800 302.053 C 38.570 300.981,39.200 299.901,39.200 299.652 C 39.200 299.404,39.380 299.200,39.600 299.200 C 39.820 299.200,40.000 298.964,40.000 298.675 C 40.000 298.387,40.360 297.764,40.800 297.292 C 41.240 296.820,41.600 296.345,41.600 296.237 C 41.600 296.129,42.117 295.266,42.750 294.320 C 43.382 293.374,44.024 292.195,44.177 291.700 C 44.329 291.205,44.622 290.800,44.827 290.800 C 45.032 290.800,45.200 290.530,45.200 290.200 C 45.200 289.870,45.380 289.600,45.600 289.600 C 45.820 289.600,46.000 289.240,46.000 288.800 C 46.000 288.360,46.180 288.000,46.400 288.000 C 46.620 288.000,46.800 287.730,46.800 287.400 C 46.800 287.070,46.980 286.800,47.200 286.800 C 47.420 286.800,47.600 286.530,47.600 286.200 C 47.600 285.870,47.735 285.598,47.900 285.595 C 48.065 285.592,48.740 284.427,49.400 283.005 C 50.060 281.584,50.735 280.416,50.900 280.410 C 51.065 280.405,51.200 280.040,51.200 279.600 C 51.200 279.160,51.380 278.800,51.600 278.800 C 51.820 278.800,52.000 278.530,52.000 278.200 C 52.000 277.870,52.180 277.600,52.400 277.600 C 52.620 277.600,52.800 277.255,52.800 276.833 C 52.800 276.412,52.937 276.007,53.105 275.933 C 53.272 275.860,54.307 274.000,55.405 271.800 C 56.502 269.600,57.535 267.740,57.700 267.667 C 57.865 267.593,58.000 267.199,58.000 266.790 C 58.000 266.382,58.180 265.936,58.400 265.800 C 58.666 265.636,58.800 285.729,58.800 325.776 C 58.800 365.659,58.935 386.000,59.200 386.000 C 59.426 386.000,59.600 387.133,59.600 388.600 C 59.600 390.067,59.774 391.200,60.000 391.200 C 60.220 391.200,60.400 391.999,60.400 392.976 C 60.400 393.953,60.580 394.864,60.800 395.000 C 61.020 395.136,61.200 395.867,61.200 396.624 C 61.200 397.381,61.380 398.000,61.600 398.000 C 61.820 398.000,62.000 398.536,62.000 399.192 C 62.000 400.376,63.662 405.968,64.409 407.295 C 64.624 407.677,64.800 408.262,64.800 408.595 C 64.800 408.928,64.980 409.200,65.200 409.200 C 65.420 409.200,65.600 409.549,65.600 409.976 C 65.600 410.403,65.780 410.864,66.000 411.000 C 66.220 411.136,66.400 411.597,66.400 412.024 C 66.400 412.451,66.580 412.800,66.800 412.800 C 67.020 412.800,67.200 413.060,67.200 413.379 C 67.200 413.697,67.650 414.804,68.200 415.838 C 68.750 416.873,69.200 417.923,69.200 418.171 C 69.200 418.420,69.560 418.883,70.000 419.200 C 70.440 419.517,70.800 420.097,70.800 420.488 C 70.800 420.880,70.980 421.200,71.200 421.200 C 71.420 421.200,71.600 421.436,71.600 421.725 C 71.600 422.013,71.960 422.636,72.400 423.108 C 72.840 423.580,73.200 424.154,73.200 424.383 C 73.200 424.612,73.391 424.800,73.624 424.800 C 73.857 424.800,73.936 424.980,73.800 425.200 C 73.664 425.420,73.731 425.600,73.949 425.600 C 74.168 425.600,74.450 425.915,74.577 426.300 C 74.704 426.685,75.301 427.578,75.904 428.284 C 76.507 428.990,77.540 430.220,78.200 431.017 C 78.860 431.814,80.345 433.437,81.500 434.624 C 82.655 435.811,83.600 436.997,83.600 437.258 C 83.600 437.519,83.706 437.627,83.836 437.497 C 83.966 437.367,84.684 437.890,85.431 438.659 C 86.882 440.153,88.758 440.292,88.197 438.864 C 88.054 438.499,87.754 437.210,87.531 436.000 C 87.308 434.790,86.981 433.080,86.804 432.200 C 80.460 400.634,81.010 366.373,88.424 331.400 C 90.605 321.108,96.100 304.065,100.066 295.290 C 100.690 293.909,101.200 292.683,101.200 292.565 C 101.200 292.287,107.599 279.492,108.785 277.400 C 109.283 276.520,110.158 274.990,110.728 274.000 C 127.132 245.522,154.118 222.731,178.000 217.186 C 178.770 217.007,180.480 216.602,181.800 216.286 C 187.908 214.824,190.297 214.600,199.800 214.600 C 209.568 214.600,211.047 214.750,218.400 216.484 C 257.359 225.673,292.725 265.856,307.217 317.400 C 308.149 320.714,308.426 321.743,309.532 326.000 C 310.791 330.844,311.904 335.790,312.415 338.800 C 312.582 339.790,312.925 341.680,313.175 343.000 C 317.627 366.469,317.965 399.671,313.997 423.600 C 313.333 427.602,312.806 430.572,312.365 432.800 C 312.126 434.010,311.791 435.720,311.622 436.600 C 311.452 437.480,311.243 438.466,311.157 438.791 C 310.429 441.528,317.498 435.887,321.416 430.603 C 322.067 429.724,323.005 428.591,323.500 428.085 C 323.995 427.578,324.400 427.020,324.400 426.844 C 324.400 426.668,324.834 426.019,325.366 425.401 C 325.897 424.783,326.662 423.587,327.066 422.743 C 327.469 421.899,327.935 421.207,328.100 421.205 C 328.265 421.202,328.400 420.840,328.400 420.400 C 328.400 419.960,328.568 419.600,328.773 419.600 C 329.244 419.600,333.603 410.843,333.601 409.900 C 333.601 409.515,333.780 409.200,334.000 409.200 C 334.220 409.200,334.400 408.840,334.400 408.400 C 334.400 407.960,334.580 407.600,334.800 407.600 C 335.020 407.600,335.200 407.161,335.200 406.624 C 335.200 406.087,335.380 405.536,335.600 405.400 C 335.820 405.264,336.000 404.713,336.000 404.176 C 336.000 403.639,336.180 403.200,336.400 403.200 C 336.620 403.200,336.800 402.671,336.800 402.024 C 336.800 401.377,336.980 400.736,337.200 400.600 C 337.420 400.464,337.600 399.902,337.600 399.350 C 337.600 398.799,337.777 398.016,337.994 397.612 C 338.210 397.207,338.506 395.599,338.651 394.038 C 338.796 392.477,339.069 391.200,339.257 391.200 C 339.446 391.200,339.600 390.030,339.600 388.600 C 339.600 387.139,339.775 386.000,339.999 386.000 C 340.261 386.000,340.432 365.436,340.499 325.704 L 340.600 265.407 343.200 270.604 C 344.630 273.462,345.904 275.890,346.032 276.000 C 346.160 276.110,346.519 276.785,346.830 277.500 C 347.141 278.215,347.531 278.800,347.698 278.800 C 347.864 278.800,348.000 279.160,348.000 279.600 C 348.000 280.040,348.180 280.400,348.400 280.400 C 348.620 280.400,348.800 280.670,348.800 281.000 C 348.800 281.330,348.980 281.600,349.200 281.600 C 349.420 281.600,349.600 281.870,349.600 282.200 C 349.600 282.530,349.810 282.800,350.067 282.800 C 350.323 282.800,350.420 282.914,350.281 283.053 C 350.142 283.192,350.240 283.687,350.499 284.153 C 350.758 284.619,350.932 285.135,350.885 285.300 C 350.838 285.465,350.958 285.600,351.151 285.600 C 351.345 285.600,351.727 286.140,352.000 286.800 C 352.273 287.460,352.611 288.000,352.751 288.000 C 352.890 288.000,353.260 288.585,353.572 289.300 C 353.884 290.015,354.468 290.891,354.870 291.247 C 355.271 291.603,355.600 292.124,355.600 292.406 C 355.600 292.687,356.230 293.866,357.000 295.026 C 357.770 296.186,358.400 297.330,358.400 297.568 C 358.400 297.806,358.580 298.000,358.800 298.000 C 359.020 298.000,359.200 298.255,359.200 298.567 C 359.200 298.878,359.357 299.193,359.548 299.267 C 359.953 299.422,362.799 303.807,362.802 304.281 C 362.803 304.456,363.343 305.175,364.002 305.878 C 364.661 306.581,365.200 307.280,365.200 307.431 C 365.200 307.583,365.515 307.997,365.900 308.353 C 366.285 308.709,366.949 309.630,367.375 310.400 C 367.801 311.170,368.431 312.019,368.775 312.287 C 369.119 312.555,369.246 312.780,369.058 312.787 C 368.869 312.794,369.274 313.322,369.958 313.960 C 370.641 314.599,371.200 315.281,371.200 315.476 C 371.200 315.672,371.936 316.635,372.837 317.616 C 373.737 318.597,374.952 320.030,375.537 320.800 C 376.820 322.490,378.922 324.576,380.977 326.200 C 381.813 326.860,383.140 327.985,383.926 328.700 C 384.713 329.415,385.518 330.000,385.716 330.000 C 385.914 330.000,386.626 330.391,387.298 330.870 C 390.078 332.849,397.200 332.026,397.200 329.725 C 397.200 329.436,397.380 329.200,397.600 329.200 C 397.820 329.200,398.000 328.840,398.000 328.400 C 398.000 327.960,398.180 327.600,398.400 327.600 C 398.620 327.600,398.800 327.075,398.800 326.433 C 398.800 325.792,398.991 325.203,399.225 325.125 C 399.800 324.933,399.784 307.061,399.209 306.870 C 398.984 306.795,398.800 305.578,398.800 304.167 C 398.800 302.722,398.625 301.600,398.400 301.600 C 398.180 301.600,398.000 300.610,398.000 299.400 C 398.000 298.190,397.843 297.200,397.652 297.200 C 397.460 297.200,397.178 295.763,397.025 294.007 C 396.872 292.251,396.578 290.710,396.373 290.583 C 396.168 290.457,396.000 289.643,396.000 288.776 C 396.000 287.909,395.820 287.200,395.600 287.200 C 395.380 287.200,395.200 286.581,395.200 285.824 C 395.200 285.067,395.020 284.336,394.800 284.200 C 394.580 284.064,394.400 283.333,394.400 282.576 C 394.400 281.819,394.220 281.200,394.000 281.200 C 393.780 281.200,393.600 280.570,393.600 279.800 C 393.600 279.030,393.420 278.400,393.200 278.400 C 392.980 278.400,392.800 277.871,392.800 277.224 C 392.800 276.577,392.620 275.936,392.400 275.800 C 392.180 275.664,392.000 275.023,392.000 274.376 C 392.000 273.729,391.820 273.200,391.600 273.200 C 391.380 273.200,391.200 272.756,391.200 272.214 C 391.200 271.672,390.956 270.457,390.658 269.514 C 390.359 268.571,389.892 266.990,389.619 266.000 C 389.346 265.010,388.960 263.887,388.761 263.505 C 388.562 263.123,388.400 262.448,388.400 262.005 C 388.400 261.562,388.220 261.200,388.000 261.200 C 387.780 261.200,387.600 260.761,387.600 260.224 C 387.600 259.687,387.420 259.136,387.200 259.000 C 386.980 258.864,386.800 258.223,386.800 257.576 C 386.800 256.929,386.620 256.400,386.400 256.400 C 386.180 256.400,386.000 255.950,386.000 255.400 C 386.000 254.850,385.820 254.400,385.600 254.400 C 385.380 254.400,385.200 253.956,385.200 253.414 C 385.200 252.533,384.555 250.691,383.551 248.705 C 383.358 248.323,383.200 247.648,383.200 247.205 C 383.200 246.762,383.020 246.400,382.800 246.400 C 382.580 246.400,382.400 245.961,382.400 245.424 C 382.400 244.887,382.220 244.336,382.000 244.200 C 381.780 244.064,381.600 243.603,381.600 243.176 C 381.600 242.749,381.420 242.400,381.200 242.400 C 380.980 242.400,380.800 241.961,380.800 241.424 C 380.800 240.887,380.643 240.350,380.452 240.232 C 380.260 240.114,379.997 239.486,379.868 238.838 C 379.652 237.759,378.467 234.808,377.567 233.105 C 377.365 232.723,377.200 232.138,377.200 231.805 C 377.200 231.472,377.020 231.200,376.800 231.200 C 376.580 231.200,376.400 230.845,376.400 230.412 C 376.400 229.979,376.040 228.983,375.600 228.200 C 375.160 227.417,374.800 226.421,374.800 225.988 C 374.800 225.555,374.620 225.200,374.400 225.200 C 374.180 225.200,374.000 224.918,374.000 224.574 C 374.000 224.230,373.550 222.965,373.000 221.763 C 372.450 220.560,372.000 219.312,372.000 218.988 C 372.000 218.665,371.820 218.400,371.600 218.400 C 371.380 218.400,371.200 218.040,371.200 217.600 C 371.200 217.160,371.020 216.800,370.800 216.800 C 370.580 216.800,370.400 216.440,370.400 216.000 C 370.400 215.560,370.220 215.200,370.000 215.200 C 369.780 215.200,369.600 214.851,369.600 214.424 C 369.600 213.997,369.420 213.536,369.200 213.400 C 368.980 213.264,368.800 212.803,368.800 212.376 C 368.800 211.949,368.620 211.600,368.400 211.600 C 368.180 211.600,368.000 211.331,368.000 211.003 C 368.000 210.169,366.677 207.200,366.306 207.200 C 366.138 207.200,366.000 206.948,366.000 206.641 C 366.000 206.333,365.460 205.055,364.800 203.800 C 364.140 202.545,363.600 201.267,363.600 200.959 C 363.600 200.652,363.420 200.400,363.200 200.400 C 362.980 200.400,362.800 200.040,362.800 199.600 C 362.800 199.160,362.620 198.800,362.400 198.800 C 362.180 198.800,362.000 198.555,362.000 198.255 C 362.000 197.956,361.467 196.741,360.816 195.555 C 360.165 194.370,358.956 192.050,358.130 190.400 C 357.304 188.750,356.486 187.340,356.314 187.267 C 356.141 187.193,356.000 186.973,356.000 186.778 C 356.000 186.324,353.923 181.866,353.588 181.600 C 353.449 181.490,353.081 180.815,352.770 180.100 C 352.459 179.385,352.069 178.800,351.902 178.800 C 351.736 178.800,351.600 178.440,351.600 178.000 C 351.600 177.560,351.420 177.200,351.200 177.200 C 350.980 177.200,350.800 176.930,350.800 176.600 C 350.800 176.270,350.640 176.000,350.443 176.000 C 350.247 176.000,349.967 175.522,349.820 174.939 C 349.674 174.355,349.024 173.107,348.377 172.167 C 347.730 171.226,347.200 170.263,347.200 170.028 C 347.200 169.793,347.064 169.600,346.898 169.600 C 346.731 169.600,346.340 169.015,346.028 168.300 C 345.716 167.585,345.132 166.709,344.730 166.353 C 344.329 165.997,344.000 165.499,344.000 165.245 C 344.000 164.992,343.550 164.071,343.000 163.200 C 342.450 162.329,342.000 161.515,342.000 161.391 C 342.000 161.268,341.640 160.780,341.200 160.308 C 340.760 159.836,340.400 159.213,340.400 158.925 C 340.400 158.636,340.220 158.400,340.000 158.400 C 339.780 158.400,339.600 158.130,339.600 157.800 C 339.600 157.470,339.420 157.200,339.200 157.200 C 338.980 157.200,338.800 157.007,338.800 156.772 C 338.800 156.290,335.185 151.074,334.707 150.867 C 334.538 150.793,334.400 150.544,334.400 150.314 C 334.400 150.083,334.071 149.603,333.668 149.247 C 332.906 148.574,332.059 146.080,331.716 143.500 C 331.606 142.675,331.355 142.000,331.158 142.000 C 330.961 142.000,330.800 141.381,330.800 140.624 C 330.800 139.867,330.620 139.136,330.400 139.000 C 330.180 138.864,330.000 138.133,330.000 137.376 C 330.000 136.619,329.820 136.000,329.600 136.000 C 329.380 136.000,329.200 135.370,329.200 134.600 C 329.200 133.830,329.020 133.200,328.800 133.200 C 328.580 133.200,328.400 132.660,328.400 132.000 C 328.400 131.340,328.220 130.800,328.000 130.800 C 327.780 130.800,327.600 130.271,327.600 129.624 C 327.600 128.977,327.441 128.349,327.246 128.229 C 327.052 128.108,326.767 127.171,326.613 126.146 C 326.459 125.121,326.186 123.994,326.006 123.641 C 325.825 123.289,325.449 122.190,325.169 121.200 C 324.890 120.210,324.512 119.229,324.330 119.020 C 324.149 118.811,324.000 118.237,324.000 117.744 C 324.000 117.251,323.820 116.736,323.600 116.600 C 323.380 116.464,323.200 115.913,323.200 115.376 C 323.200 114.839,323.020 114.400,322.800 114.400 C 322.580 114.400,322.400 113.961,322.400 113.424 C 322.400 112.887,322.220 112.336,322.000 112.200 C 321.780 112.064,321.600 111.603,321.600 111.176 C 321.600 110.749,321.443 110.400,321.251 110.400 C 321.059 110.400,320.794 109.724,320.662 108.898 C 320.530 108.071,320.057 106.640,319.611 105.717 C 319.165 104.794,318.800 103.771,318.800 103.443 C 318.800 103.115,318.620 102.736,318.400 102.600 C 318.180 102.464,318.000 102.003,318.000 101.576 C 318.000 101.149,317.820 100.800,317.600 100.800 C 317.380 100.800,317.200 100.451,317.200 100.024 C 317.200 99.597,317.020 99.136,316.800 99.000 C 316.580 98.864,316.400 98.403,316.400 97.976 C 316.400 97.549,316.220 97.200,316.000 97.200 C 315.780 97.200,315.600 96.840,315.600 96.400 C 315.600 95.960,315.443 95.600,315.250 95.600 C 315.058 95.600,314.795 95.073,314.666 94.428 C 314.391 93.055,310.394 84.662,309.922 84.467 C 309.745 84.393,309.600 83.988,309.600 83.567 C 309.600 83.145,309.420 82.800,309.200 82.800 C 308.980 82.800,308.800 82.609,308.800 82.375 C 308.800 81.898,306.743 77.511,306.373 77.200 C 306.243 77.090,305.881 76.415,305.570 75.700 C 305.259 74.985,304.869 74.400,304.702 74.400 C 304.536 74.400,304.400 74.130,304.400 73.800 C 304.400 73.470,304.220 73.200,304.000 73.200 C 303.780 73.200,303.600 72.855,303.600 72.433 C 303.600 72.012,303.465 71.607,303.300 71.533 C 303.135 71.460,302.660 70.770,302.244 70.000 C 300.138 66.103,299.827 65.600,299.526 65.600 C 299.347 65.600,299.200 65.364,299.200 65.075 C 299.200 64.787,298.862 64.188,298.449 63.745 C 298.036 63.301,297.574 62.547,297.422 62.069 C 297.270 61.591,296.978 61.200,296.773 61.200 C 296.568 61.200,296.400 60.964,296.400 60.675 C 296.400 60.387,296.040 59.764,295.600 59.292 C 295.160 58.820,294.800 58.325,294.800 58.193 C 294.800 57.873,292.282 54.636,291.900 54.467 C 291.735 54.393,291.600 54.135,291.600 53.892 C 291.600 53.408,288.265 48.991,287.116 47.953 C 286.722 47.597,286.400 47.002,286.400 46.629 C 286.400 46.257,286.220 46.064,286.000 46.200 C 285.780 46.336,285.600 46.242,285.600 45.990 C 285.600 45.739,284.970 44.921,284.200 44.174 C 283.430 43.426,282.800 42.713,282.800 42.590 C 282.800 42.364,281.284 40.642,278.083 37.230 C 275.111 34.062,273.715 32.680,270.581 29.800 C 268.905 28.260,267.107 26.595,266.585 26.100 C 266.063 25.605,265.520 25.200,265.379 25.200 C 265.237 25.200,264.644 24.697,264.060 24.083 C 263.477 23.469,262.280 22.434,261.400 21.783 C 260.521 21.132,259.452 20.285,259.025 19.900 C 258.598 19.515,258.053 19.200,257.813 19.200 C 257.573 19.200,257.117 18.840,256.800 18.400 C 256.483 17.960,255.993 17.600,255.712 17.600 C 255.430 17.600,255.200 17.420,255.200 17.200 C 255.200 16.980,254.964 16.800,254.675 16.800 C 254.387 16.800,253.772 16.447,253.310 16.016 C 252.847 15.585,252.003 15.116,251.434 14.973 C 250.865 14.830,250.400 14.553,250.400 14.357 C 250.400 14.160,250.212 14.000,249.983 14.000 C 249.754 14.000,249.180 13.640,248.708 13.200 C 248.236 12.760,247.613 12.400,247.325 12.400 C 247.036 12.400,246.800 12.220,246.800 12.000 C 246.800 11.780,246.440 11.600,246.000 11.600 C 245.560 11.600,245.200 11.454,245.200 11.275 C 245.200 11.096,244.570 10.702,243.800 10.400 C 243.030 10.098,242.400 9.720,242.400 9.561 C 242.400 9.401,241.680 9.149,240.800 9.000 C 239.920 8.851,239.200 8.566,239.200 8.365 C 239.200 8.164,238.840 8.000,238.400 8.000 C 237.960 8.000,237.600 7.864,237.600 7.698 C 237.600 7.531,237.015 7.160,236.300 6.871 C 235.585 6.583,234.687 6.179,234.305 5.974 C 233.923 5.768,233.338 5.600,233.005 5.600 C 232.672 5.600,232.400 5.420,232.400 5.200 C 232.400 4.980,231.950 4.800,231.400 4.800 C 230.850 4.800,230.400 4.620,230.400 4.400 C 230.400 4.180,229.871 4.000,229.224 4.000 C 228.577 4.000,227.941 3.828,227.811 3.618 C 227.682 3.409,226.501 3.115,225.188 2.967 C 223.875 2.818,222.800 2.540,222.800 2.348 C 222.800 2.157,222.080 2.000,221.200 2.000 C 220.320 2.000,219.600 1.820,219.600 1.600 C 219.600 1.380,218.805 1.200,217.833 1.200 C 216.832 1.200,215.999 0.996,215.909 0.728 C 215.751 0.252,192.862 -0.107,186.700 0.271 M175.627 83.845 C 191.177 88.461,196.149 106.794,184.950 118.222 C 168.862 134.639,142.174 115.591,151.995 94.700 C 153.047 92.463,153.256 92.334,152.968 94.100 L 152.757 95.400 153.503 94.000 C 154.977 91.236,155.430 90.753,157.499 89.737 C 163.460 86.811,169.977 90.710,169.977 97.200 C 169.977 106.961,156.877 109.022,153.330 99.819 C 152.987 98.926,152.854 98.814,152.837 99.400 C 152.621 106.641,165.982 108.410,169.458 101.600 C 173.580 93.527,164.686 84.874,156.935 89.417 C 154.763 90.690,154.689 90.100,156.794 88.298 C 161.865 83.958,169.737 82.096,175.627 83.845 M234.827 83.845 C 255.557 89.999,254.973 118.828,234.017 123.841 C 217.726 127.738,203.708 110.043,211.079 94.887 C 212.224 92.533,212.588 92.348,211.993 94.424 C 209.049 104.690,223.831 111.056,228.658 101.600 C 232.780 93.527,223.886 84.874,216.135 89.417 C 213.953 90.695,213.892 90.097,216.018 88.277 C 221.103 83.925,228.904 82.087,234.827 83.845 M225.573 90.208 C 232.442 94.838,229.100 105.600,220.793 105.600 C 216.442 105.600,213.980 103.912,212.592 99.976 C 209.881 92.294,218.758 85.614,225.573 90.208 M230.660 151.012 C 230.796 151.365,230.537 151.935,230.047 152.359 C 229.581 152.763,229.200 153.309,229.200 153.573 C 229.200 153.836,228.660 154.506,228.000 155.061 C 227.340 155.617,226.800 156.294,226.800 156.566 C 226.800 156.838,226.350 157.483,225.800 158.000 C 225.250 158.517,224.800 159.125,224.800 159.353 C 224.800 159.580,224.150 160.432,223.356 161.245 C 221.974 162.660,221.285 163.648,220.456 165.400 C 220.248 165.840,219.430 166.820,218.639 167.578 C 217.847 168.337,217.200 169.164,217.200 169.416 C 217.200 169.669,216.840 170.202,216.400 170.600 C 215.960 170.998,215.600 171.545,215.600 171.814 C 215.600 172.084,214.790 173.030,213.800 173.916 C 212.810 174.802,212.000 175.774,212.000 176.075 C 212.000 176.377,211.640 176.883,211.200 177.200 C 210.760 177.517,210.400 177.975,210.400 178.219 C 210.400 178.462,209.950 179.083,209.400 179.600 C 208.850 180.117,208.400 180.742,208.400 180.989 C 208.400 181.236,207.680 182.141,206.800 183.000 C 205.920 183.859,205.200 184.768,205.200 185.019 C 205.200 185.270,204.840 185.802,204.400 186.200 C 203.960 186.598,203.600 187.113,203.600 187.343 C 203.600 187.988,201.118 190.400,200.453 190.400 C 199.730 190.400,198.400 189.245,198.400 188.616 C 198.400 188.364,197.770 187.546,197.000 186.800 C 196.230 186.054,195.600 185.224,195.600 184.957 C 195.600 184.690,195.060 184.017,194.400 183.461 C 193.740 182.906,193.200 182.205,193.200 181.904 C 193.200 181.603,192.570 180.746,191.800 180.000 C 191.030 179.254,190.400 178.448,190.400 178.210 C 190.400 177.972,190.040 177.517,189.600 177.200 C 189.160 176.883,188.798 176.348,188.796 176.012 C 188.794 175.675,188.254 174.975,187.596 174.455 C 186.938 173.935,186.400 173.296,186.400 173.033 C 186.400 172.771,185.770 171.946,185.000 171.200 C 184.230 170.454,183.600 169.640,183.600 169.391 C 183.600 169.143,183.131 168.503,182.558 167.970 C 181.984 167.436,181.346 166.640,181.140 166.200 C 180.328 164.467,179.629 163.464,178.244 162.045 C 177.450 161.232,176.800 160.383,176.800 160.158 C 176.800 159.933,176.260 159.232,175.600 158.600 C 174.940 157.968,174.400 157.233,174.400 156.967 C 174.400 156.701,173.770 155.930,173.000 155.254 C 172.230 154.578,171.600 153.749,171.600 153.412 C 171.600 153.075,171.420 152.800,171.200 152.800 C 170.755 152.800,170.648 151.085,171.067 150.667 C 171.703 150.030,230.414 150.370,230.660 151.012 " stroke="none" fill="#124578" fill-rule="evenodd"></path><path id="path2" d="M171.067 150.667 C 170.648 151.085,170.755 152.800,171.200 152.800 C 171.420 152.800,171.600 153.075,171.600 153.412 C 171.600 153.749,172.230 154.578,173.000 155.254 C 173.770 155.930,174.400 156.701,174.400 156.967 C 174.400 157.233,174.940 157.968,175.600 158.600 C 176.260 159.232,176.800 159.933,176.800 160.158 C 176.800 160.383,177.450 161.232,178.244 162.045 C 179.629 163.464,180.328 164.467,181.140 166.200 C 181.346 166.640,181.984 167.436,182.558 167.970 C 183.131 168.503,183.600 169.143,183.600 169.391 C 183.600 169.640,184.230 170.454,185.000 171.200 C 185.770 171.946,186.400 172.771,186.400 173.033 C 186.400 173.296,186.938 173.935,187.596 174.455 C 188.254 174.975,188.794 175.675,188.796 176.012 C 188.798 176.348,189.160 176.883,189.600 177.200 C 190.040 177.517,190.400 177.972,190.400 178.210 C 190.400 178.448,191.030 179.254,191.800 180.000 C 192.570 180.746,193.200 181.603,193.200 181.904 C 193.200 182.205,193.740 182.906,194.400 183.461 C 195.060 184.017,195.600 184.690,195.600 184.957 C 195.600 185.224,196.230 186.054,197.000 186.800 C 197.770 187.546,198.400 188.364,198.400 188.616 C 198.400 189.245,199.730 190.400,200.453 190.400 C 201.118 190.400,203.600 187.988,203.600 187.343 C 203.600 187.113,203.960 186.598,204.400 186.200 C 204.840 185.802,205.200 185.270,205.200 185.019 C 205.200 184.768,205.920 183.859,206.800 183.000 C 207.680 182.141,208.400 181.236,208.400 180.989 C 208.400 180.742,208.850 180.117,209.400 179.600 C 209.950 179.083,210.400 178.462,210.400 178.219 C 210.400 177.975,210.760 177.517,211.200 177.200 C 211.640 176.883,212.000 176.377,212.000 176.075 C 212.000 175.774,212.810 174.802,213.800 173.916 C 214.790 173.030,215.600 172.084,215.600 171.814 C 215.600 171.545,215.960 170.998,216.400 170.600 C 216.840 170.202,217.200 169.669,217.200 169.416 C 217.200 169.164,217.847 168.337,218.639 167.578 C 219.430 166.820,220.248 165.840,220.456 165.400 C 221.285 163.648,221.974 162.660,223.356 161.245 C 224.150 160.432,224.800 159.580,224.800 159.353 C 224.800 159.125,225.250 158.517,225.800 158.000 C 226.350 157.483,226.800 156.838,226.800 156.566 C 226.800 156.294,227.340 155.617,228.000 155.061 C 228.660 154.506,229.200 153.836,229.200 153.573 C 229.200 153.309,229.581 152.763,230.047 152.359 C 232.333 150.376,232.688 150.400,200.879 150.400 C 184.629 150.400,171.213 150.520,171.067 150.667 M108.600 434.000 C 108.464 434.220,107.474 434.400,106.400 434.400 C 105.326 434.400,104.336 434.580,104.200 434.800 C 104.064 435.020,103.164 435.200,102.200 435.200 C 101.236 435.200,100.336 435.380,100.200 435.600 C 100.064 435.820,99.434 436.000,98.800 436.000 C 98.166 436.000,97.549 436.159,97.429 436.354 C 97.308 436.548,96.378 436.832,95.362 436.985 C 94.346 437.137,92.898 437.608,92.145 438.031 C 91.392 438.454,90.421 438.800,89.988 438.800 C 89.555 438.800,89.200 438.969,89.200 439.175 C 89.200 439.382,88.396 439.672,87.413 439.819 C 86.160 440.007,85.555 440.313,85.386 440.843 C 85.254 441.260,84.798 441.600,84.373 441.600 C 83.948 441.600,83.600 441.745,83.600 441.923 C 83.600 442.101,82.925 442.544,82.099 442.908 C 81.273 443.273,80.328 443.964,79.999 444.445 C 79.670 444.926,78.635 446.098,77.700 447.049 C 76.765 448.001,76.000 448.964,76.000 449.189 C 76.000 449.415,75.820 449.600,75.600 449.600 C 75.380 449.600,75.200 449.960,75.200 450.400 C 75.200 450.840,75.020 451.200,74.800 451.200 C 74.580 451.200,74.400 451.560,74.400 452.000 C 74.400 452.440,74.220 452.800,74.000 452.800 C 73.778 452.800,73.600 453.867,73.600 455.200 L 73.600 457.600 119.400 457.600 L 165.200 457.600 165.200 455.200 C 165.200 453.867,165.022 452.800,164.800 452.800 C 164.580 452.800,164.400 452.506,164.400 452.146 C 164.400 451.786,163.950 451.075,163.400 450.565 C 162.850 450.055,162.400 449.463,162.400 449.249 C 162.400 448.670,156.846 443.269,155.962 442.988 C 155.543 442.855,155.200 442.578,155.200 442.373 C 155.200 442.168,154.906 442.000,154.547 442.000 C 154.188 442.000,153.603 441.685,153.247 441.300 C 152.480 440.470,149.358 438.800,148.574 438.800 C 148.272 438.800,147.386 438.442,146.607 438.004 C 145.827 437.566,144.468 437.092,143.586 436.951 C 142.704 436.810,141.886 436.539,141.768 436.347 C 141.649 436.156,140.944 436.000,140.200 436.000 C 139.456 436.000,138.736 435.820,138.600 435.600 C 138.464 435.380,137.654 435.200,136.800 435.200 C 135.946 435.200,135.136 435.020,135.000 434.800 C 134.864 434.580,133.784 434.400,132.600 434.400 C 131.416 434.400,130.336 434.220,130.200 434.000 C 130.045 433.750,126.004 433.600,119.400 433.600 C 112.796 433.600,108.755 433.750,108.600 434.000 M269.800 434.000 C 269.664 434.220,268.573 434.400,267.376 434.400 C 266.179 434.400,265.200 434.580,265.200 434.800 C 265.200 435.020,264.401 435.200,263.424 435.200 C 262.447 435.200,261.536 435.380,261.400 435.600 C 261.264 435.820,260.544 436.000,259.800 436.000 C 259.056 436.000,258.346 436.164,258.222 436.365 C 258.097 436.566,257.244 436.857,256.326 437.013 C 255.407 437.168,254.053 437.633,253.316 438.047 C 252.579 438.461,251.728 438.800,251.426 438.800 C 250.710 438.800,247.572 440.428,246.800 441.200 C 246.470 441.530,245.570 442.139,244.800 442.552 C 243.351 443.331,237.600 448.728,237.600 449.309 C 237.600 449.490,237.150 450.055,236.600 450.565 C 236.050 451.075,235.600 451.786,235.600 452.146 C 235.600 452.506,235.420 452.800,235.200 452.800 C 234.978 452.800,234.800 453.867,234.800 455.200 L 234.800 457.600 280.600 457.600 L 326.400 457.600 326.400 455.200 C 326.400 453.867,326.222 452.800,326.000 452.800 C 325.780 452.800,325.600 452.440,325.600 452.000 C 325.600 451.560,325.420 451.200,325.200 451.200 C 324.980 451.200,324.800 450.840,324.800 450.400 C 324.800 449.960,324.620 449.600,324.400 449.600 C 324.180 449.600,324.000 449.415,324.000 449.189 C 324.000 448.964,323.235 448.001,322.300 447.049 C 321.365 446.098,320.330 444.926,320.001 444.445 C 319.672 443.964,318.727 443.273,317.901 442.908 C 317.075 442.544,316.400 442.101,316.400 441.923 C 316.400 441.745,316.052 441.600,315.627 441.600 C 315.202 441.600,314.744 441.255,314.610 440.832 C 314.447 440.318,313.844 439.976,312.785 439.798 C 311.916 439.651,311.103 439.366,310.978 439.165 C 310.854 438.964,310.409 438.800,309.989 438.800 C 309.568 438.800,308.608 438.454,307.855 438.031 C 307.102 437.608,305.654 437.137,304.638 436.985 C 303.622 436.832,302.692 436.548,302.571 436.354 C 302.451 436.159,301.834 436.000,301.200 436.000 C 300.566 436.000,299.936 435.820,299.800 435.600 C 299.664 435.380,298.764 435.200,297.800 435.200 C 296.836 435.200,295.936 435.020,295.800 434.800 C 295.664 434.580,294.674 434.400,293.600 434.400 C 292.526 434.400,291.536 434.220,291.400 434.000 C 291.245 433.750,287.204 433.600,280.600 433.600 C 273.996 433.600,269.955 433.750,269.800 434.000 " stroke="none" fill="#ffc000" fill-rule="evenodd"></path><path id="path3" d="M165.000 83.947 C 162.106 84.778,158.953 86.450,156.794 88.298 C 154.689 90.100,154.763 90.690,156.935 89.417 C 158.331 88.599,159.200 88.400,161.375 88.400 C 173.357 88.400,173.834 105.435,161.866 105.937 C 155.764 106.192,152.689 102.960,152.887 96.500 C 152.949 94.465,152.975 92.800,152.944 92.800 C 152.913 92.800,152.486 93.655,151.995 94.700 C 142.174 115.591,168.862 134.639,184.950 118.222 C 199.613 103.260,185.022 78.193,165.000 83.947 M224.445 83.832 C 221.753 84.556,218.137 86.464,216.018 88.277 C 213.892 90.097,213.953 90.695,216.135 89.417 C 223.886 84.874,232.780 93.527,228.658 101.600 C 223.831 111.056,209.049 104.690,211.993 94.424 C 212.588 92.348,212.224 92.533,211.079 94.887 C 201.686 114.201,225.246 133.080,242.312 119.914 C 259.594 106.580,245.523 78.164,224.445 83.832 " stroke="none" fill="#000000" fill-rule="evenodd"></path><path id="path4" d="M171.067 150.667 C 170.648 151.085,170.755 152.800,171.200 152.800 C 171.420 152.800,171.600 153.075,171.600 153.412 C 171.600 153.749,172.230 154.578,173.000 155.254 C 173.770 155.930,174.400 156.701,174.400 156.967 C 174.400 157.233,174.940 157.968,175.600 158.600 C 176.260 159.232,176.800 159.933,176.800 160.158 C 176.800 160.383,177.450 161.232,178.244 162.045 C 179.629 163.464,180.328 164.467,181.140 166.200 C 181.346 166.640,181.984 167.436,182.558 167.970 C 183.131 168.503,183.600 169.143,183.600 169.391 C 183.600 169.640,184.230 170.454,185.000 171.200 C 185.770 171.946,186.400 172.771,186.400 173.033 C 186.400 173.296,186.938 173.935,187.596 174.455 C 188.254 174.975,188.794 175.675,188.796 176.012 C 188.798 176.348,189.160 176.883,189.600 177.200 C 190.040 177.517,190.400 177.972,190.400 178.210 C 190.400 178.448,191.030 179.254,191.800 180.000 C 192.570 180.746,193.200 181.603,193.200 181.904 C 193.200 182.205,193.740 182.906,194.400 183.461 C 195.060 184.017,195.600 184.690,195.600 184.957 C 195.600 185.224,196.230 186.054,197.000 186.800 C 197.770 187.546,198.400 188.364,198.400 188.616 C 198.400 189.245,199.730 190.400,200.453 190.400 C 201.118 190.400,203.600 187.988,203.600 187.343 C 203.600 187.113,203.960 186.598,204.400 186.200 C 204.840 185.802,205.200 185.270,205.200 185.019 C 205.200 184.768,205.920 183.859,206.800 183.000 C 207.680 182.141,208.400 181.236,208.400 180.989 C 208.400 180.742,208.850 180.117,209.400 179.600 C 209.950 179.083,210.400 178.462,210.400 178.219 C 210.400 177.975,210.760 177.517,211.200 177.200 C 211.640 176.883,212.000 176.377,212.000 176.075 C 212.000 175.774,212.810 174.802,213.800 173.916 C 214.790 173.030,215.600 172.084,215.600 171.814 C 215.600 171.545,215.960 170.998,216.400 170.600 C 216.840 170.202,217.200 169.669,217.200 169.416 C 217.200 169.164,217.847 168.337,218.639 167.578 C 219.430 166.820,220.248 165.840,220.456 165.400 C 221.285 163.648,221.974 162.660,223.356 161.245 C 224.150 160.432,224.800 159.580,224.800 159.353 C 224.800 159.125,225.250 158.517,225.800 158.000 C 226.350 157.483,226.800 156.838,226.800 156.566 C 226.800 156.294,227.340 155.617,228.000 155.061 C 228.660 154.506,229.200 153.836,229.200 153.573 C 229.200 153.309,229.581 152.763,230.047 152.359 C 232.333 150.376,232.688 150.400,200.879 150.400 C 184.629 150.400,171.213 150.520,171.067 150.667 M108.600 434.000 C 108.464 434.220,107.474 434.400,106.400 434.400 C 105.326 434.400,104.336 434.580,104.200 434.800 C 104.064 435.020,103.164 435.200,102.200 435.200 C 101.236 435.200,100.336 435.380,100.200 435.600 C 100.064 435.820,99.434 436.000,98.800 436.000 C 98.166 436.000,97.549 436.159,97.429 436.354 C 97.308 436.548,96.378 436.832,95.362 436.985 C 94.346 437.137,92.898 437.608,92.145 438.031 C 91.392 438.454,90.421 438.800,89.988 438.800 C 89.555 438.800,89.200 438.969,89.200 439.175 C 89.200 439.382,88.396 439.672,87.413 439.819 C 86.160 440.007,85.555 440.313,85.386 440.843 C 85.254 441.260,84.798 441.600,84.373 441.600 C 83.948 441.600,83.600 441.745,83.600 441.923 C 83.600 442.101,82.925 442.544,82.099 442.908 C 81.273 443.273,80.328 443.964,79.999 444.445 C 79.670 444.926,78.635 446.098,77.700 447.049 C 76.765 448.001,76.000 448.964,76.000 449.189 C 76.000 449.415,75.820 449.600,75.600 449.600 C 75.380 449.600,75.200 449.960,75.200 450.400 C 75.200 450.840,75.020 451.200,74.800 451.200 C 74.580 451.200,74.400 451.560,74.400 452.000 C 74.400 452.440,74.220 452.800,74.000 452.800 C 73.778 452.800,73.600 453.867,73.600 455.200 L 73.600 457.600 119.400 457.600 L 165.200 457.600 165.200 455.200 C 165.200 453.867,165.022 452.800,164.800 452.800 C 164.580 452.800,164.400 452.506,164.400 452.146 C 164.400 451.786,163.950 451.075,163.400 450.565 C 162.850 450.055,162.400 449.463,162.400 449.249 C 162.400 448.670,156.846 443.269,155.962 442.988 C 155.543 442.855,155.200 442.578,155.200 442.373 C 155.200 442.168,154.906 442.000,154.547 442.000 C 154.188 442.000,153.603 441.685,153.247 441.300 C 152.480 440.470,149.358 438.800,148.574 438.800 C 148.272 438.800,147.386 438.442,146.607 438.004 C 145.827 437.566,144.468 437.092,143.586 436.951 C 142.704 436.810,141.886 436.539,141.768 436.347 C 141.649 436.156,140.944 436.000,140.200 436.000 C 139.456 436.000,138.736 435.820,138.600 435.600 C 138.464 435.380,137.654 435.200,136.800 435.200 C 135.946 435.200,135.136 435.020,135.000 434.800 C 134.864 434.580,133.784 434.400,132.600 434.400 C 131.416 434.400,130.336 434.220,130.200 434.000 C 130.045 433.750,126.004 433.600,119.400 433.600 C 112.796 433.600,108.755 433.750,108.600 434.000 M269.800 434.000 C 269.664 434.220,268.573 434.400,267.376 434.400 C 266.179 434.400,265.200 434.580,265.200 434.800 C 265.200 435.020,264.401 435.200,263.424 435.200 C 262.447 435.200,261.536 435.380,261.400 435.600 C 261.264 435.820,260.544 436.000,259.800 436.000 C 259.056 436.000,258.346 436.164,258.222 436.365 C 258.097 436.566,257.244 436.857,256.326 437.013 C 255.407 437.168,254.053 437.633,253.316 438.047 C 252.579 438.461,251.728 438.800,251.426 438.800 C 250.710 438.800,247.572 440.428,246.800 441.200 C 246.470 441.530,245.570 442.139,244.800 442.552 C 243.351 443.331,237.600 448.728,237.600 449.309 C 237.600 449.490,237.150 450.055,236.600 450.565 C 236.050 451.075,235.600 451.786,235.600 452.146 C 235.600 452.506,235.420 452.800,235.200 452.800 C 234.978 452.800,234.800 453.867,234.800 455.200 L 234.800 457.600 280.600 457.600 L 326.400 457.600 326.400 455.200 C 326.400 453.867,326.222 452.800,326.000 452.800 C 325.780 452.800,325.600 452.440,325.600 452.000 C 325.600 451.560,325.420 451.200,325.200 451.200 C 324.980 451.200,324.800 450.840,324.800 450.400 C 324.800 449.960,324.620 449.600,324.400 449.600 C 324.180 449.600,324.000 449.415,324.000 449.189 C 324.000 448.964,323.235 448.001,322.300 447.049 C 321.365 446.098,320.330 444.926,320.001 444.445 C 319.672 443.964,318.727 443.273,317.901 442.908 C 317.075 442.544,316.400 442.101,316.400 441.923 C 316.400 441.745,316.052 441.600,315.627 441.600 C 315.202 441.600,314.744 441.255,314.610 440.832 C 314.447 440.318,313.844 439.976,312.785 439.798 C 311.916 439.651,311.103 439.366,310.978 439.165 C 310.854 438.964,310.409 438.800,309.989 438.800 C 309.568 438.800,308.608 438.454,307.855 438.031 C 307.102 437.608,305.654 437.137,304.638 436.985 C 303.622 436.832,302.692 436.548,302.571 436.354 C 302.451 436.159,301.834 436.000,301.200 436.000 C 300.566 436.000,299.936 435.820,299.800 435.600 C 299.664 435.380,298.764 435.200,297.800 435.200 C 296.836 435.200,295.936 435.020,295.800 434.800 C 295.664 434.580,294.674 434.400,293.600 434.400 C 292.526 434.400,291.536 434.220,291.400 434.000 C 291.245 433.750,287.204 433.600,280.600 433.600 C 273.996 433.600,269.955 433.750,269.800 434.000 " stroke="none" fill="#ffc000" fill-rule="evenodd"></path></g></svg>